# xmcd
#
# Track frame offsets:
#  150
#  12527
#  24575
#  37240
#  48498
#  60180
#  70164
#  80197
#  89484
#  100979
#  109776
#  123966
#  132692
#  143329
#  155607
#  166120
#  174542
#  184750
#  195217
#  205203
#  216502
#  225031
#  236585
#  246908
#  255330
#  263560
#  272972
#
# Disc length: 3775 seconds
#
# Revision: 2
# Processed by: cddbd v1.5.1PL2 Copyright (c) Steve Scherf et al.
# Submitted via: Collectorz.com_Music_Collector 6.9
#
DISCID=7a0ebd1b
DTITLE=Various Artist - Rarest Of The Rare - Volume 06
DYEAR=2001
DGENRE=Doo-Wop
TTITLE0=Boyd, Tim and The Esquires - My Dearest, My Darling
TTITLE1=Lane, Rusty and The Mystics - Karen
TTITLE2=Williams, Willie and The Tones - A Star
TTITLE3=Rowena Five, Jeff - Diddle De Dum
TTITLE4=Seven Teardrops, The - Your Gonna Cry So Many Tears
TTITLE5=Spindle Toppers, The - Hey Moon
TTITLE6=Marathons, The - Don't Know Why
TTITLE7=Five Chances, The - Land Of Love
TTITLE8=Smith, George and Group - Born Again
TTITLE9=Love Larks, The - It's Love(unrel demo)
TTITLE10=Parris, Fred and The Restless Hearts - In The Still Of The Night
TTITLE11=Five Crowns, The - I Want You
TTITLE12=Fabulous Continentals, The - This Is My Prayer
TTITLE13=Chancellors, The - My Thoughts To You
TTITLE14=Charters, The - My Rose
TTITLE15=Charades, The - Let Me Love You
TTITLE16=Fabulous Continentals, The - My Darling
TTITLE17=Zodiacs, The - Another Little Darling
TTITLE18=Debs, The - Star In The Sky
TTITLE19=Telegrams, The - Oh Baby Please
TTITLE20=Cardell, Nick and Group - I Stand Alone
TTITLE21=Delongs, The - I Want Your Love
TTITLE22=Cruisers, The - There's A Girl
TTITLE23=Candle Lights, The - I'm Without A Boyfriend
TTITLE24=Chauntes, The - Bohemian Love
TTITLE25=Fidells, The - Why Do I Love You
TTITLE26=Kingsmen, The - Don't Say You're Sorry
EXTD=
EXTT0=
EXTT1=
EXTT2=
EXTT3=
EXTT4=
EXTT5=
EXTT6=
EXTT7=
EXTT8=
EXTT9=
EXTT10=
EXTT11=
EXTT12=
EXTT13=
EXTT14=
EXTT15=
EXTT16=
EXTT17=
EXTT18=
EXTT19=
EXTT20=
EXTT21=
EXTT22=
EXTT23=
EXTT24=
EXTT25=
EXTT26=
PLAYORDER=
